<?xml version="1.0" encoding="UTF-8"?>
<svg xmlns="http://www.w3.org/2000/svg" xmlns:xlink="http://www.w3.org/1999/xlink" width="48px" height="48px" viewBox="0 0 48 48" version="1.1">
<g id="surface1">
<path style=" stroke:none;fill-rule:nonzero;fill:rgb(1.960784%,2.352941%,2.745098%);fill-opacity:1;" d="M 22.816406 1.351562 L 22.929688 1.410156 L 23.042969 1.632812 L 23.125 1.914062 L 23.15625 2.195312 L 23.15625 3.125 L 23.097656 3.578125 L 22.902344 4.480469 L 22.507812 5.972656 L 22.195312 7.125 L 21.914062 8.308594 L 21.804688 8.902344 L 21.804688 10.167969 L 21.832031 10.589844 L 21.945312 11.070312 L 22.167969 11.605469 L 22.535156 12.28125 L 22.84375 12.789062 L 23.183594 13.269531 L 23.464844 13.632812 L 23.804688 14.027344 L 24 14.253906 L 24.394531 14.675781 L 24.480469 14.703125 L 24.480469 13.746094 L 24.535156 13.070312 L 24.675781 12.394531 L 24.84375 11.886719 L 25.097656 11.410156 L 25.378906 11.042969 L 25.632812 10.761719 L 25.832031 10.5625 L 26.226562 10.253906 L 26.648438 9.914062 L 27.15625 9.550781 L 27.492188 9.210938 L 27.773438 8.816406 L 27.972656 8.421875 L 28.226562 7.804688 L 28.339844 7.773438 L 28.308594 8.085938 L 28.226562 8.621094 L 28.140625 9.015625 L 28 9.4375 L 27.71875 9.972656 L 27.410156 10.449219 L 27.15625 10.761719 L 26.875 11.125 L 26.648438 11.578125 L 26.449219 12.085938 L 26.339844 12.5625 L 26.28125 13.070312 L 26.28125 13.550781 L 26.339844 14.027344 L 26.589844 14.789062 L 26.816406 15.269531 L 27.042969 15.660156 L 27.269531 16 L 27.324219 15.972656 L 27.519531 15.464844 L 27.804688 14.789062 L 28.027344 14.339844 L 28.394531 13.746094 L 28.761719 13.238281 L 28.984375 12.957031 L 29.296875 12.621094 L 29.550781 12.367188 L 29.914062 12.085938 L 30.480469 11.71875 L 31.183594 11.269531 L 31.550781 11.042969 L 32.140625 10.761719 L 33.015625 10.480469 L 33.832031 10.28125 L 34.621094 10.140625 L 35.578125 9.972656 L 36.054688 9.832031 L 36.507812 9.605469 L 36.816406 9.410156 L 37.351562 8.875 L 37.550781 8.648438 L 37.832031 8.28125 L 38.027344 7.945312 L 38.140625 7.886719 L 38.167969 7.972656 L 38 8.480469 L 37.773438 8.84375 L 37.4375 9.296875 L 37.125 9.660156 L 36.902344 9.945312 L 36.648438 10.226562 L 36.28125 10.5625 L 35.746094 10.957031 L 35.269531 11.324219 L 34.730469 11.691406 L 34.253906 11.972656 L 33.804688 12.195312 L 33.042969 12.5625 L 32.421875 12.902344 L 32.027344 13.15625 L 31.632812 13.492188 L 31.351562 13.746094 L 31.070312 14.054688 L 30.84375 14.339844 L 30.449219 14.84375 L 30.054688 15.410156 L 29.71875 16 L 29.605469 16.253906 L 29.492188 16.84375 L 29.378906 18 L 29.519531 17.914062 L 29.859375 17.519531 L 30.054688 17.296875 L 30.675781 16.675781 L 31.125 16.339844 L 31.492188 16.113281 L 31.945312 15.886719 L 32.535156 15.691406 L 33.410156 15.578125 L 33.886719 15.578125 L 35.378906 15.972656 L 36.027344 16.085938 L 36.957031 16.085938 L 37.492188 15.945312 L 37.914062 15.773438 L 38.027344 15.773438 L 38 15.886719 L 37.632812 16.140625 L 36.929688 16.589844 L 36.535156 16.789062 L 36.28125 16.875 L 35.804688 16.957031 L 35.492188 16.957031 L 34.535156 17.042969 L 33.972656 17.183594 L 33.519531 17.351562 L 33.042969 17.578125 L 32.621094 17.832031 L 32.195312 18.167969 L 32.140625 18.253906 L 32.085938 18.253906 L 32.027344 18.367188 L 31.804688 18.589844 L 31.519531 19.015625 L 31.183594 19.632812 L 30.957031 20.195312 L 30.789062 20.84375 L 30.703125 21.269531 L 30.84375 21.183594 L 31.324219 20.84375 L 32.085938 20.449219 L 32.875 20.113281 L 33.605469 19.832031 L 34.480469 19.550781 L 35.125 19.410156 L 35.351562 19.378906 L 36.449219 19.378906 L 37.070312 19.464844 L 37.519531 19.578125 L 38.195312 19.804688 L 38.703125 20.027344 L 39.210938 20.308594 L 39.578125 20.589844 L 39.945312 20.902344 L 40.675781 21.632812 L 40.84375 21.773438 L 40.84375 21.832031 L 40.957031 21.886719 L 41.519531 22.449219 L 41.746094 22.648438 L 42.113281 22.929688 L 42.535156 23.15625 L 43.15625 23.410156 L 43.804688 23.519531 L 44.789062 23.519531 L 44.929688 23.464844 L 45.042969 23.492188 L 44.984375 23.605469 L 44.789062 23.773438 L 44.449219 23.945312 L 43.773438 24.167969 L 43.183594 24.308594 L 42.621094 24.339844 L 42.195312 24.308594 L 41.492188 24.140625 L 40.957031 23.945312 L 39.691406 23.410156 L 38.5625 22.929688 L 37.886719 22.675781 L 37.238281 22.5625 L 36.957031 22.5625 L 35.804688 22.675781 L 35.042969 22.789062 L 34.449219 22.929688 L 33.550781 23.238281 L 32.816406 23.550781 L 32.226562 23.859375 L 31.914062 24.054688 L 31.859375 24.054688 L 31.859375 24.113281 L 32.339844 24.113281 L 33.070312 24.167969 L 33.859375 24.28125 L 34.394531 24.421875 L 34.84375 24.621094 L 35.269531 24.875 L 35.605469 25.125 L 35.914062 25.4375 L 36.167969 25.773438 L 36.535156 26.253906 L 36.789062 26.535156 L 37.070312 26.789062 L 37.464844 27.042969 L 37.945312 27.269531 L 38.480469 27.410156 L 38.957031 27.519531 L 38.957031 27.578125 L 38.507812 27.691406 L 37.464844 27.804688 L 36.84375 27.804688 L 36.367188 27.691406 L 36.027344 27.550781 L 35.632812 27.324219 L 35.015625 26.929688 L 34.480469 26.535156 L 34.085938 26.253906 L 33.691406 26.054688 L 33.324219 25.945312 L 32.761719 25.859375 L 32.226562 25.945312 L 31.71875 26.085938 L 31.269531 26.28125 L 30.253906 26.816406 L 30.113281 26.902344 L 30.054688 26.902344 L 30.140625 27.042969 L 30.449219 27.410156 L 30.703125 27.632812 L 31.15625 27.886719 L 32.167969 28.226562 L 33.15625 28.507812 L 33.519531 28.648438 L 33.832031 28.84375 L 34.167969 29.183594 L 34.449219 29.550781 L 34.789062 30.054688 L 35.097656 30.589844 L 35.410156 31.324219 L 35.605469 31.972656 L 35.773438 32.730469 L 36 34.027344 L 36.195312 35.070312 L 36.28125 35.410156 L 36.480469 35.859375 L 36.730469 36.253906 L 37.097656 36.703125 L 37.4375 37.097656 L 37.691406 37.351562 L 37.972656 37.519531 L 38.421875 37.691406 L 38.761719 37.773438 L 38.761719 37.859375 L 38.5625 37.945312 L 38.195312 38.027344 L 37.773438 38.027344 L 37.15625 37.945312 L 36.480469 37.71875 L 35.832031 37.410156 L 35.4375 37.125 L 34.957031 36.648438 L 34.703125 36.28125 L 34.480469 35.832031 L 34.195312 34.984375 L 33.859375 33.773438 L 33.660156 33.015625 L 33.492188 32.449219 L 33.324219 32.054688 L 33.070312 31.632812 L 32.761719 31.269531 L 32.648438 31.15625 L 32.648438 31.097656 L 32.535156 31.042969 L 32.253906 30.84375 L 31.71875 30.589844 L 30.449219 30.085938 L 29.660156 29.804688 L 28.984375 29.605469 L 28.167969 29.4375 L 27.804688 29.378906 L 27.746094 29.351562 L 27.886719 29.492188 L 28.449219 30 L 28.929688 30.480469 L 29.269531 30.929688 L 29.492188 31.269531 L 29.746094 31.691406 L 29.914062 32.085938 L 30.027344 32.535156 L 30.113281 32.957031 L 30.113281 33.71875 L 30.054688 34.054688 L 30.085938 35.183594 L 30.113281 35.804688 L 30.195312 36.113281 L 30.339844 36.339844 L 30.535156 36.5625 L 30.789062 36.761719 L 30.789062 36.84375 L 30.589844 36.84375 L 30.308594 36.730469 L 30.054688 36.5625 L 29.773438 36.308594 L 29.492188 36.027344 L 29.210938 35.632812 L 29.015625 35.296875 L 28.84375 34.875 L 28.789062 34.675781 L 28.761719 34.339844 L 28.761719 33.492188 L 28.648438 32.929688 L 28.421875 32.421875 L 28.226562 32.113281 L 27.972656 31.804688 L 27.746094 31.632812 L 26.621094 31.070312 L 25.773438 30.703125 L 26.027344 31.238281 L 26.253906 31.832031 L 26.421875 32.394531 L 26.535156 32.84375 L 26.648438 33.550781 L 26.703125 34.054688 L 26.703125 35.15625 L 26.589844 35.945312 L 26.421875 36.589844 L 26.226562 37.15625 L 25.886719 37.859375 L 25.578125 38.421875 L 25.125 39.070312 L 24.761719 39.578125 L 24.507812 39.972656 L 24.253906 40.507812 L 24.054688 41.097656 L 23.914062 41.71875 L 23.859375 42.027344 L 23.832031 42.339844 L 23.832031 43.859375 L 23.886719 44.535156 L 24.027344 45.578125 L 24.167969 46.339844 L 24.140625 46.421875 L 24 46.421875 L 23.832031 46.167969 L 23.492188 45.378906 L 23.125 44.339844 L 22.875 43.519531 L 22.703125 42.875 L 22.589844 42.140625 L 22.589844 41.351562 L 22.703125 40.367188 L 22.875 39.492188 L 23.070312 38.703125 L 23.296875 37.886719 L 23.4375 37.125 L 23.492188 36.589844 L 23.578125 35.578125 L 23.578125 33.746094 L 23.410156 32.789062 L 23.238281 32.113281 L 23.097656 31.773438 L 22.875 31.351562 L 22.648438 31.015625 L 22.507812 30.816406 L 22.449219 30.789062 L 22.449219 32.113281 L 22.367188 32.703125 L 22.226562 33.351562 L 22 34.027344 L 21.691406 34.621094 L 21.351562 35.125 L 21.097656 35.464844 L 20.789062 35.804688 L 20.675781 35.945312 L 20.449219 36.140625 L 20.195312 36.394531 L 19.972656 36.589844 L 19.519531 37.015625 L 19.183594 37.324219 L 18.648438 37.859375 L 18.621094 37.914062 L 18.5625 37.914062 L 18.507812 38.027344 L 18.226562 38.308594 L 17.886719 38.816406 L 17.550781 39.578125 L 17.4375 39.660156 L 17.410156 39.632812 L 17.410156 39.238281 L 17.550781 38.535156 L 17.773438 37.914062 L 18.113281 37.269531 L 18.367188 36.84375 L 18.648438 36.394531 L 19.015625 35.859375 L 19.269531 35.4375 L 19.519531 34.984375 L 19.773438 34.394531 L 19.972656 33.859375 L 20.113281 33.351562 L 20.226562 32.84375 L 20.308594 32.339844 L 20.339844 31.492188 L 20.308594 30.675781 L 20.195312 29.71875 L 20.195312 29.632812 L 20.140625 29.632812 L 20.113281 29.859375 L 19.832031 30.675781 L 19.578125 31.238281 L 19.296875 31.773438 L 19.015625 32.195312 L 18.730469 32.589844 L 18.449219 32.957031 L 18.195312 33.269531 L 17.804688 33.691406 L 17.578125 33.914062 L 17.183594 34.226562 L 16.761719 34.5625 L 16.253906 34.902344 L 15.632812 35.238281 L 15.238281 35.410156 L 14.449219 35.691406 L 13.605469 36 L 13.125 36.195312 L 12.589844 36.480469 L 12.195312 36.703125 L 11.773438 36.984375 L 11.410156 37.269531 L 11.269531 37.410156 L 11.210938 37.410156 L 11.15625 37.519531 L 10.929688 37.773438 L 10.675781 38.167969 L 10.535156 38.480469 L 10.421875 38.789062 L 10.339844 38.84375 L 10.308594 38.816406 L 10.308594 38.226562 L 10.480469 37.660156 L 10.789062 36.902344 L 11.125 36.253906 L 11.492188 35.71875 L 11.746094 35.4375 L 11.945312 35.210938 L 12 35.125 L 12.054688 35.125 L 12.113281 35.015625 L 12.535156 34.648438 L 12.929688 34.339844 L 13.832031 33.660156 L 14.28125 33.296875 L 14.648438 33.015625 L 15.042969 32.703125 L 15.4375 32.367188 L 15.71875 32.113281 L 15.945312 31.914062 L 16.253906 31.578125 L 16.761719 30.957031 L 17.042969 30.5625 L 17.269531 30.195312 L 17.464844 29.746094 L 17.605469 29.410156 L 17.71875 28.984375 L 17.804688 28.367188 L 17.804688 27.519531 L 17.746094 26.929688 L 17.71875 26.875 L 17.378906 27.492188 L 16.984375 28.054688 L 16.648438 28.449219 L 16.308594 28.789062 L 16 29.070312 L 15.410156 29.464844 L 14.929688 29.71875 L 14.449219 29.859375 L 14.054688 29.945312 L 13.324219 30.027344 L 12.480469 30.140625 L 11.804688 30.253906 L 11.351562 30.394531 L 10.84375 30.621094 L 10.535156 30.816406 L 10.195312 31.125 L 10.054688 31.296875 L 9.972656 31.324219 L 10 31.183594 L 10.195312 30.929688 L 10.449219 30.621094 L 10.703125 30.339844 L 10.984375 30.054688 L 11.210938 29.859375 L 11.519531 29.632812 L 11.972656 29.4375 L 12.621094 29.238281 L 13.410156 28.929688 L 13.945312 28.648438 L 14.28125 28.421875 L 14.761719 28.027344 L 15.125 27.632812 L 15.492188 27.070312 L 15.886719 26.308594 L 16.167969 25.632812 L 16.367188 25.097656 L 16.480469 24.816406 L 16.507812 24.675781 L 16.140625 24.957031 L 15.632812 25.324219 L 15.097656 25.660156 L 14.449219 26 L 13.859375 26.253906 L 13.351562 26.449219 L 12.84375 26.589844 L 12.054688 26.761719 L 11.578125 26.816406 L 10.816406 26.816406 L 10.28125 26.761719 L 9.691406 26.648438 L 8.984375 26.421875 L 8.28125 26.113281 L 7.660156 25.746094 L 6.984375 25.324219 L 6.507812 25.015625 L 6.054688 24.703125 L 5.632812 24.421875 L 5.042969 24.113281 L 4.449219 23.914062 L 4 23.804688 L 3.746094 23.773438 L 2.703125 23.773438 L 2.308594 23.859375 L 1.914062 23.972656 L 1.746094 23.972656 L 1.804688 23.859375 L 2.28125 23.632812 L 2.789062 23.4375 L 3.578125 23.238281 L 4.339844 23.15625 L 5.070312 23.125 L 5.632812 23.125 L 6.195312 23.238281 L 7.972656 23.832031 L 8.621094 23.972656 L 8.957031 24 L 9.632812 24 L 10.113281 23.914062 L 11.015625 23.832031 L 11.859375 23.71875 L 12.621094 23.519531 L 13.324219 23.210938 L 13.914062 22.902344 L 14.054688 22.816406 L 14.113281 22.816406 L 14.113281 22.761719 L 13.519531 22.675781 L 13.070312 22.589844 L 12.507812 22.394531 L 12.054688 22.167969 L 11.550781 21.859375 L 11.210938 21.605469 L 10.84375 21.296875 L 10.5625 21.042969 L 10.28125 20.730469 L 10.054688 20.449219 L 9.660156 19.972656 L 9.578125 19.886719 L 9.578125 19.832031 L 9.464844 19.773438 L 9.183594 19.519531 L 8.816406 19.296875 L 8.253906 19.070312 L 7.605469 18.875 L 7.492188 18.789062 L 7.519531 18.703125 L 8.789062 18.703125 L 9.324219 18.761719 L 9.859375 18.84375 L 10.449219 19.015625 L 10.902344 19.238281 L 11.296875 19.519531 L 11.660156 19.859375 L 11.945312 20.113281 L 12.226562 20.339844 L 12.507812 20.480469 L 13.269531 20.730469 L 13.605469 20.816406 L 14.195312 20.816406 L 14.589844 20.730469 L 15.269531 20.5625 L 15.632812 20.421875 L 16.027344 20.167969 L 16.140625 20.085938 L 16.140625 20 L 15.691406 19.832031 L 15.210938 19.605469 L 14.730469 19.296875 L 14.195312 18.902344 L 13.832031 18.589844 L 13.519531 18.339844 L 13.183594 18.027344 L 12.367188 17.210938 L 12.140625 16.929688 L 11.859375 16.5625 L 11.464844 16.027344 L 10.875 15.238281 L 10.730469 14.984375 L 10.535156 14.589844 L 10.195312 13.578125 L 9.914062 12.589844 L 9.71875 12.027344 L 9.378906 11.324219 L 9.015625 10.675781 L 8.789062 10.339844 L 8.535156 10.027344 L 8.226562 9.804688 L 7.914062 9.660156 L 7.410156 9.492188 L 7.269531 9.4375 L 7.269531 9.351562 L 7.71875 9.351562 L 8.449219 9.4375 L 8.875 9.519531 L 9.378906 9.691406 L 10.027344 10.027344 L 10.480469 10.308594 L 10.902344 10.621094 L 11.183594 10.902344 L 11.464844 11.296875 L 11.71875 11.746094 L 12.140625 12.5625 L 12.480469 13.125 L 12.789062 13.578125 L 13.070312 13.972656 L 13.4375 14.480469 L 13.832031 15.015625 L 14.195312 15.492188 L 14.449219 15.773438 L 14.789062 16.085938 L 15.183594 16.367188 L 15.550781 16.535156 L 15.914062 16.648438 L 16.507812 16.761719 L 17.410156 16.816406 L 17.015625 16.421875 L 16.761719 16.113281 L 16.480469 15.746094 L 16.28125 15.4375 L 16.027344 14.875 L 15.859375 14.308594 L 15.746094 13.632812 L 15.71875 13.351562 L 15.691406 11.097656 L 15.578125 10.308594 L 15.410156 9.605469 L 15.183594 8.929688 L 14.84375 8.167969 L 14.507812 7.550781 L 14.226562 7.097656 L 14.027344 6.816406 L 14.085938 6.789062 L 14.308594 6.957031 L 14.703125 7.296875 L 14.957031 7.550781 L 15.269531 7.945312 L 15.550781 8.367188 L 15.832031 8.875 L 16.167969 9.632812 L 16.449219 10.421875 L 16.703125 11.269531 L 16.984375 12.28125 L 17.210938 12.84375 L 17.4375 13.238281 L 17.773438 13.632812 L 18.167969 14.027344 L 18.480469 14.28125 L 18.84375 14.589844 L 19.269531 14.875 L 19.691406 15.125 L 20.394531 15.410156 L 20.957031 15.605469 L 20.789062 15.296875 L 20.535156 14.84375 L 20.167969 14.085938 L 19.914062 13.410156 L 19.660156 12.589844 L 19.464844 11.804688 L 19.324219 11.015625 L 19.324219 9.945312 L 19.492188 9.070312 L 19.71875 8.394531 L 20.027344 7.71875 L 20.226562 7.324219 L 20.480469 6.902344 L 20.730469 6.507812 L 21.183594 5.832031 L 21.550781 5.324219 L 21.914062 4.761719 L 22.28125 4.054688 L 22.5625 3.269531 L 22.703125 2.84375 L 22.789062 2.480469 L 22.816406 2 Z M 22.816406 1.351562 "/>
<path style=" stroke:none;fill-rule:nonzero;fill:rgb(1.176471%,63.529412%,100%);fill-opacity:1;" d="M 20.507812 18.675781 L 26.253906 18.675781 L 26.507812 19.015625 L 26.730469 19.351562 L 27.804688 20.929688 L 28.421875 21.859375 L 28.730469 22.308594 L 29.125 22.902344 L 29.070312 23.042969 L 28.789062 23.464844 L 28.085938 24.507812 L 27.632812 25.183594 L 26.816406 26.394531 L 26.394531 27.015625 L 26.253906 27.210938 L 20.480469 27.210938 L 19.070312 25.097656 L 18.253906 23.886719 L 17.632812 22.957031 L 17.660156 22.84375 L 17.859375 22.5625 L 18.929688 20.984375 L 19.691406 19.859375 L 20.308594 18.929688 L 20.449219 18.703125 Z M 20.507812 18.675781 "/>
<path style=" stroke:none;fill-rule:nonzero;fill:rgb(74.901961%,90.588235%,100%);fill-opacity:1;" d="M 31.832031 24.054688 L 31.859375 24.113281 L 32.339844 24.113281 L 33.070312 24.167969 L 33.324219 24.195312 L 33.324219 24.226562 L 32.195312 24.195312 L 31.773438 24.167969 Z M 31.832031 24.054688 "/>
<path style=" stroke:none;fill-rule:nonzero;fill:rgb(61.176471%,65.490196%,68.235294%);fill-opacity:1;" d="M 11.269531 29.804688 L 11.324219 29.832031 L 10.394531 30.761719 L 10.394531 30.675781 L 10.730469 30.308594 L 10.984375 30.054688 L 11.210938 29.859375 Z M 11.269531 29.804688 "/>
<path style=" stroke:none;fill-rule:nonzero;fill:rgb(59.215686%,66.666667%,70.980392%);fill-opacity:1;" d="M 26 10.421875 L 26.054688 10.449219 L 25.351562 11.15625 L 25.351562 11.070312 L 25.660156 10.730469 Z M 26 10.421875 "/>
<path style=" stroke:none;fill-rule:nonzero;fill:rgb(89.019608%,95.686275%,100%);fill-opacity:1;" d="M 22.816406 1.351562 L 22.902344 1.378906 L 22.875 2.28125 L 22.84375 2.480469 L 22.816406 2.480469 Z M 22.816406 1.351562 "/>
<path style=" stroke:none;fill-rule:nonzero;fill:rgb(59.607843%,68.235294%,72.941176%);fill-opacity:1;" d="M 12.367188 34.789062 L 12.421875 34.816406 L 11.804688 35.4375 L 11.804688 35.351562 L 12 35.125 L 12.054688 35.125 L 12.113281 35.015625 Z M 12.367188 34.789062 "/>
<path style=" stroke:none;fill-rule:nonzero;fill:rgb(85.882353%,94.901961%,100%);fill-opacity:1;" d="M 10.621094 38.167969 L 10.648438 38.226562 L 10.507812 38.5625 L 10.394531 38.816406 L 10.308594 38.816406 L 10.339844 38.703125 L 10.339844 38.761719 L 10.394531 38.761719 L 10.449219 38.507812 Z M 10.621094 38.167969 "/>
<path style=" stroke:none;fill-rule:nonzero;fill:rgb(85.098039%,94.509804%,100%);fill-opacity:1;" d="M 17.71875 26.789062 L 17.804688 26.816406 L 17.832031 27.125 L 17.832031 27.519531 L 17.804688 27.519531 L 17.746094 26.929688 L 17.71875 26.875 L 17.660156 26.902344 Z M 17.71875 26.789062 "/>
<path style=" stroke:none;fill-rule:nonzero;fill:rgb(72.54902%,89.803922%,100%);fill-opacity:1;" d="M 16.589844 16.789062 L 17.464844 16.816406 L 17.464844 16.902344 L 16.589844 16.816406 Z M 16.589844 16.789062 "/>
</g>
</svg>
